Coordinates
version=1
nRows=14
nColumns=40
inDegrees=yes

Units are S.I. units (second, meters, Newtons, ...)
If the header above contains a line with 'inDegrees', this indicates whether rotational values are in degrees (yes) or radians (no).

endheader
time	pelvis_tilt	pelvis_list	pelvis_rotation	pelvis_tx	pelvis_ty	pelvis_tz	hip_flexion_r	hip_adduction_r	hip_rotation_r	knee_angle_r	knee_angle_r_beta	ankle_angle_r	subtalar_angle_r	mtp_angle_r	hip_flexion_l	hip_adduction_l	hip_rotation_l	knee_angle_l	knee_angle_l_beta	ankle_angle_l	subtalar_angle_l	mtp_angle_l	lumbar_extension	lumbar_bending	lumbar_rotation	arm_flex_r	arm_add_r	arm_rot_r	elbow_flex_r	pro_sup_r	wrist_flex_r	wrist_dev_r	arm_flex_l	arm_add_l	arm_rot_l	elbow_flex_l	pro_sup_l	wrist_flex_l	wrist_dev_l
      3.67500000	    -42.85835311	     -1.71505541	    -28.81595233	     -0.40793568	      0.59285183	     -0.85016768	    105.70587519	     19.19500462	     -5.71076963	     93.82093780	      1.63748427	     36.62278664	      0.00000000	      0.00000000	    119.01526709	    -49.88474929	     24.68033867	     99.20248072	      1.73140991	     34.58888846	      0.00000000	      0.00000000	    -13.08834996	     -9.61198759	     18.20554686	     -7.02398993	    -42.11880333	     51.06297382	     90.77182443	     87.64481037	      0.00000000	      0.00000000	    -43.39550685	    -48.32468222	     13.92472572	     96.09464127	     87.84418232	      0.00000000	      0.00000000
      3.68000000	    -43.02571114	     -2.07359996	    -28.62408511	     -0.40547086	      0.59902574	     -0.84989117	    104.87929079	     19.17916573	     -5.75979172	     92.81248268	      1.61988341	     36.38202158	      0.00000000	      0.00000000	    118.32519534	    -49.87916419	     24.15371009	     98.30162232	      1.71568697	     34.22546428	      0.00000000	      0.00000000	    -12.41121320	     -8.77036125	     18.17694859	     -7.02808602	    -42.19544974	     50.93782990	     90.69931864	     87.63889261	      0.00000000	      0.00000000	    -43.31336333	    -48.24358657	     13.84371308	     96.08468967	     87.83854190	      0.00000000	      0.00000000
      3.68500000	    -42.81448647	     -2.18136996	    -28.26403093	     -0.40250086	      0.60583790	     -0.85014545	    103.67615875	     19.00095391	     -5.42476954	     91.85028912	      1.60308996	     36.31198470	      0.00000000	      0.00000000	    116.64679397	    -49.87510047	     22.79323550	     97.35947525	      1.69924340	     33.66948159	      0.00000000	      0.00000000	    -12.03370905	     -8.30700045	     17.88688427	     -6.85697028	    -41.99433347	     50.74705611	     90.27650291	     87.58243261	      0.00000000	      0.00000000	    -42.84307957	    -47.99985667	     13.89047494	     95.60071423	     87.79392001	      0.00000000	      0.00000000
      3.69000000	    -42.60234171	     -1.93417155	    -28.01554599	     -0.39979490	      0.61254211	     -0.85040798	    102.60843370	     18.91436915	     -4.78595898	     90.88775727	      1.58629061	     35.93343309	      0.00000000	      0.00000000	    114.57041787	    -49.87991667	     21.08930217	     96.36342184	      1.68185899	     33.69217475	      0.00000000	      0.00000000	    -11.40769188	     -8.17391904	     17.58516251	     -6.51483217	    -41.99223865	     50.94855766	     90.04768654	     87.64923987	      0.00000000	      0.00000000	    -42.58011801	    -47.96949956	     14.24876155	     94.98269302	     87.79592642	      0.00000000	      0.00000000
      3.69500000	    -41.96782115	     -1.88378406	    -27.62452460	     -0.39593544	      0.61999394	     -0.85075641	    100.98493549	     18.69938121	     -4.11768606	     90.01185938	      1.57100331	     35.76234974	      0.00000000	      0.00000000	    111.85052274	    -49.88153540	     19.12076188	     95.35157725	      1.66419897	     33.62355661	      0.00000000	      0.00000000	    -11.35250039	     -8.13175854	     17.17279425	     -6.60883352	    -41.76167002	     50.45110130	     89.84396695	     87.63324938	      0.00000000	      0.00000000	    -42.43291505	    -47.69203766	     13.92994448	     94.75052142	     87.77648688	      0.00000000	      0.00000000
      3.70000000	    -42.11465456	     -2.26866442	    -27.62530018	     -0.39346513	      0.62734778	     -0.85002776	    100.04843372	     18.90520576	     -4.21753970	     88.74808709	      1.54894632	     35.39661815	      0.00000000	      0.00000000	    110.87194148	    -49.88757433	     18.75761079	     94.14076656	      1.64306634	     33.18991143	      0.00000000	      0.00000000	    -10.63027293	     -7.36657996	     17.36789479	     -6.52196413	    -41.89770039	     50.39838548	     89.78581473	     87.63264935	      0.00000000	      0.00000000	    -42.31553585	    -47.59463117	     13.82650350	     94.69433453	     87.76177851	      0.00000000	      0.00000000
      3.70500000	    -33.59710804	      1.86528919	    -20.75333287	     -0.37981204	      0.64603317	     -0.87469219	     91.08508469	      9.19693710	      2.80466108	     89.87854971	      1.56867662	     35.73935468	      0.00000000	      0.00000000	     90.45897024	    -44.27831865	     -0.66256022	     92.81618097	      1.61994796	     35.17051596	      0.00000000	      0.00000000	    -19.34608053	    -11.90228657	      8.93827669	     -4.09343521	    -42.75388475	     50.33675309	     89.17412424	     87.42044281	      0.00000000	      0.00000000	    -36.80354329	    -46.59732047	     16.81248774	     92.79322536	     87.56855405	      0.00000000	      0.00000000
      3.71000000	    -33.01199534	      1.42430546	    -20.99288045	     -0.37637364	      0.65473990	     -0.87349334	     89.28610364	      9.59161997	      2.78972102	     88.55910629	      1.54564799	     35.48396621	      0.00000000	      0.00000000	     88.45608215	    -44.63434822	     -1.49672491	     91.52556560	      1.59742247	     34.81542720	      0.00000000	      0.00000000	    -19.16802369	    -11.52029924	      9.35639976	     -3.49477096	    -42.67904342	     50.81360945	     88.95408219	     87.41099491	      0.00000000	      0.00000000	    -36.41295264	    -46.49363116	     16.88719960	     92.59244418	     87.50511061	      0.00000000	      0.00000000
      3.71500000	    -32.87598767	      1.63355692	    -20.92634615	     -0.37390569	      0.66202425	     -0.87335342	     88.30298593	      9.50049060	      3.14976999	     87.39744914	      1.52537325	     35.03984488	      0.00000000	      0.00000000	     86.79808732	    -44.42616246	     -2.80766199	     90.26468801	      1.57541600	     34.17016780	      0.00000000	      0.00000000	    -18.37185842	    -11.48787433	      9.33784618	     -3.43923963	    -42.53994241	     50.60997651	     88.75658091	     87.39205871	      0.00000000	      0.00000000	    -36.50106361	    -46.31898252	     16.51598276	     92.55099600	     87.48436811	      0.00000000	      0.00000000
      3.72000000	    -32.35690246	      1.38708155	    -20.90906492	     -0.37041821	      0.67042549	     -0.87294495	     86.67139344	      9.49566414	      3.19583802	     86.12726056	      1.50320427	     34.65772892	      0.00000000	      0.00000000	     84.79048664	    -44.36702996	     -3.88059771	     88.96603339	      1.55275021	     34.07365810	      0.00000000	      0.00000000	    -18.09011300	    -11.15083022	      9.45271407	     -3.31248617	    -42.41786774	     50.44989592	     88.53699888	     87.38708913	      0.00000000	      0.00000000	    -36.44118939	    -46.02555084	     16.17547976	     92.45164470	     87.45954343	      0.00000000	      0.00000000
      3.72500000	    -32.09163307	      1.02693049	    -20.47268403	     -0.36659309	      0.67851184	     -0.87317396	     85.22571240	      9.04743636	      2.97164072	     84.87194121	      1.48129482	     34.33082575	      0.00000000	      0.00000000	     83.25333353	    -43.82370784	     -4.45569559	     87.59895436	      1.52889017	     33.45646705	      0.00000000	      0.00000000	    -17.57247490	    -10.45869743	      9.27124561	     -3.30855612	    -42.32155131	     50.25206915	     88.40128849	     87.37016466	      0.00000000	      0.00000000	    -36.36560524	    -45.77348684	     16.01057586	     92.42515421	     87.44895167	      0.00000000	      0.00000000
      3.73000000	    -31.50948620	      1.31170478	    -20.26517748	     -0.36299799	      0.68650817	     -0.87360006	     83.78794893	      8.62748213	      3.46711512	     83.80552308	      1.46268231	     33.95300538	      0.00000000	      0.00000000	     80.85348385	    -43.36452579	     -6.24399334	     86.29317463	      1.50610002	     33.08263828	      0.00000000	      0.00000000	    -17.16397125	    -10.54537333	      9.03077092	     -3.38276971	    -42.13604621	     49.84936959	     88.15023870	     87.34688414	      0.00000000	      0.00000000	    -36.45545882	    -45.46117852	     15.62219919	     92.29066111	     87.42244814	      0.00000000	      0.00000000
      3.73500000	    -30.92651682	      0.91101063	    -20.12546811	     -0.35895682	      0.69549632	     -0.87336977	     81.96389818	      8.47750165	      3.31791662	     82.42832385	      1.43864565	     33.51466448	      0.00000000	      0.00000000	     78.85755717	    -43.03646707	     -6.66727637	     85.04478955	      1.48431159	     32.29373798	      0.00000000	      0.00000000	    -16.91276005	    -10.02058934	      9.11047328	     -3.36561324	    -42.02351217	     49.64282430	     87.99202006	     87.33168771	      0.00000000	      0.00000000	    -36.42423813	    -45.15412429	     15.40146584	     92.26819735	     87.41339330	      0.00000000	      0.00000000
      3.74000000	    -30.36079890	      0.74176615	    -19.38137065	     -0.35426383	      0.70394330	     -0.87431303	     80.29620422	      7.54494818	      3.17386473	     81.31167464	      1.41915644	     33.13339841	      0.00000000	      0.00000000	     76.85171793	    -42.07842679	     -7.64237486	     83.64103304	      1.45981142	     31.86194893	      0.00000000	      0.00000000	    -16.62274282	     -9.49200705	      8.45925885	     -3.89259002	    -41.59633525	     48.63579907	     87.69569416	     87.30309388	      0.00000000	      0.00000000	    -36.62929082	    -44.70390080	     15.03914765	     92.12916316	     87.39603120	      0.00000000	      0.00000000
